<svg width="23" height="23" viewBox="0 0 23 23" fill="none" xmlns="http://www.w3.org/2000/svg">
<g clip-path="url(#clip0_1_311)">
<path d="M11.4999 8.36368C13.2301 8.36368 14.6362 9.7698 14.6362 11.5C14.6362 13.2303 13.2301 14.6364 11.4999 14.6364C9.76963 14.6364 8.36351 13.2303 8.36351 11.5C8.36351 9.7698 9.76968 8.36368 11.4999 8.36368Z" fill="white"/>
<path d="M11.5 3.65912C16.7273 3.65912 21.1913 6.91045 23 11.5C21.1913 16.0896 16.7273 19.341 11.5 19.341C6.26749 19.341 1.8086 16.0896 -4.95911e-05 11.5C1.8086 6.91045 6.26749 3.65912 11.5 3.65912ZM11.5 16.7273C14.3854 16.7273 16.7273 14.3854 16.7273 11.5C16.7273 8.61453 14.3854 6.27274 11.5 6.27274C8.61452 6.27274 6.27268 8.61458 6.27268 11.5C6.27268 14.3855 8.61452 16.7273 11.5 16.7273Z" fill="white"/>
</g>
<defs>
<clipPath id="clip0_1_311">
<rect width="23" height="23" fill="white" transform="matrix(-1 0 0 1 23 0)"/>
</clipPath>
</defs>
</svg>
