<svg width="134" height="23" viewBox="0 0 134 23" fill="none" xmlns="http://www.w3.org/2000/svg">
<path d="M49.8641 10.7809H43.7129V14.7443H50.5891V17.8262H39.9331V1.1669H50.232V4.24882H43.7129V7.72368H49.8641V10.7809Z" fill="white"/>
<path d="M59.4538 17.8308L59.2328 16.6273H59.1524C58.3593 17.5904 57.121 18.102 55.6849 18.102C53.2114 18.102 51.7598 16.333 51.7598 14.4037C51.7598 11.2509 54.5888 9.75622 58.8849 9.76238V9.60828C58.8849 8.9657 58.5386 8.04575 56.6619 8.05037C55.4883 8.06583 54.3376 8.37643 53.3165 8.95338L52.6208 6.53561C53.4665 6.05329 55.1206 5.45694 57.339 5.45694C61.3816 5.45694 62.6601 7.83772 62.6601 10.6792V14.8999C62.6601 16.0541 62.7219 17.1513 62.8533 17.8278L59.4538 17.8308ZM58.9978 12.1077C57.0113 12.0969 55.4762 12.57 55.4762 14.0139C55.4762 14.9893 56.1162 15.4639 56.9742 15.4639C57.404 15.4644 57.8233 15.331 58.1734 15.0824C58.5234 14.8337 58.7868 14.4822 58.9267 14.0771C58.9795 13.8671 59.0034 13.6509 58.9978 13.4345V12.1077Z" fill="white"/>
<path d="M76.2424 5.72815C76.1852 6.50941 76.1388 7.53261 76.1388 9.33553V16.0711C76.1388 18.3948 75.675 20.2979 74.293 21.5122C72.9619 22.6602 71.1578 22.9977 69.3723 22.9977C67.7692 22.9977 66.0934 22.671 65.0066 22.0731L65.7564 19.2223C66.8366 19.8068 68.0443 20.1179 69.2734 20.1284C71.0573 20.1284 72.4224 19.1776 72.4224 16.9417V16.1712H72.3729C71.6587 17.1513 70.4946 17.723 69.1033 17.723C66.1104 17.723 63.9708 15.296 63.9708 11.8319C63.9631 7.92247 66.4845 5.45694 69.4635 5.45694C71.1315 5.45694 72.1735 6.18119 72.7888 7.17511H72.8382L72.965 5.72815H76.2424ZM72.3637 10.6592C72.3665 10.4254 72.3411 10.192 72.2879 9.96424C72.0282 8.96879 71.3062 8.29847 70.2581 8.29847C68.8853 8.29847 67.7846 9.54973 67.7846 11.7441C67.7846 13.5454 68.6782 14.9554 70.2473 14.9554C70.7034 14.9591 71.1479 14.8122 71.5115 14.5377C71.875 14.2631 72.1372 13.8763 72.257 13.4376C72.3348 13.1111 72.3712 12.7761 72.3652 12.4406L72.3637 10.6592Z" fill="white"/>
<path d="M77.6727 0.276215H81.4525V17.8308H77.6727V0.276215Z" fill="white"/>
<path d="M86.4178 12.9891C86.5306 14.5501 88.0781 15.2913 89.8389 15.2913C90.9734 15.3089 92.1028 15.136 93.1797 14.7797L93.6836 17.3223C92.4268 17.8324 90.9118 18.0928 89.2839 18.0928C85.1718 18.0928 82.8112 15.7059 82.8112 11.929C82.8112 8.84705 84.7343 5.45694 88.9299 5.45694C92.8643 5.45694 94.3499 8.50496 94.3499 11.499C94.3568 11.999 94.3117 12.4984 94.2154 12.9891H86.4178ZM90.8484 10.4111C90.8484 9.50658 90.4496 7.95946 88.732 7.95946C87.1366 7.95946 86.492 9.41104 86.3869 10.4111H90.8484Z" fill="white"/>
<path d="M95.5901 14.5486C96.278 14.9708 97.7281 15.4485 98.8272 15.4485C99.9666 15.4485 100.454 15.0664 100.454 14.4484C100.454 13.8305 100.067 13.5239 98.6711 13.0492C96.1482 12.2264 95.1974 10.8503 95.2113 9.4357C95.2113 7.16278 97.136 5.45694 100.147 5.45694C101.568 5.45694 102.825 5.78979 103.567 6.1627L102.91 8.75305C102.096 8.33419 101.198 8.10102 100.282 8.07041C99.3544 8.07041 98.8334 8.43561 98.8334 9.04429C98.8334 9.62369 99.3142 9.93034 100.801 10.4419C103.106 11.2217 104.071 12.4036 104.085 14.168C104.085 16.4255 102.318 18.0897 98.8396 18.0897C97.2566 18.0897 95.8343 17.7338 94.9083 17.2391L95.5901 14.5486Z" fill="white"/>
<path d="M117.353 11.6578C117.353 16.0803 114.211 18.102 110.955 18.102C107.422 18.102 104.686 15.7752 104.686 11.8673C104.686 7.95946 107.271 5.45694 111.179 5.45694C114.885 5.45694 117.353 8.00414 117.353 11.6578ZM108.576 11.7826C108.576 13.8475 109.452 15.4146 111.06 15.4146C112.532 15.4146 113.462 13.9461 113.462 11.7625C113.462 9.97811 112.773 8.14437 111.063 8.14437C109.264 8.14437 108.576 9.9889 108.576 11.7826Z" fill="white"/>
<path d="M119.134 17.8308V8.5034H117.529V5.72967H119.134V5.26738C119.134 3.81272 119.581 2.20858 120.66 1.21004C121.615 0.316281 122.912 0.000384377 124.019 0.000384377C124.695 -0.00653793 125.368 0.080069 126.02 0.257725L125.865 3.14394C125.47 3.02437 125.058 2.96565 124.645 2.96981C123.409 2.96981 122.881 3.94062 122.881 5.11175V5.72813H125.312V8.50186H122.914V17.8308H119.134Z" fill="white"/>
<path d="M131.25 2.27792V5.72813H133.966V8.50186H131.25V12.8874C131.25 14.3467 131.613 15.0186 132.738 15.0186C133.116 15.0239 133.492 14.9861 133.861 14.9061L133.89 17.7646C133.403 17.9402 132.499 18.0882 131.446 18.0882C130.225 18.0882 129.207 17.6644 128.601 17.0388C127.9 16.3207 127.558 15.1696 127.558 13.4514V8.5034H125.936V5.72967H127.55V3.12853L131.25 2.27792Z" fill="white"/>
<path d="M36.9963 19.21C36.5403 15.6534 34.5986 11.3218 31.9288 7.90857C28.6854 3.76185 24.7619 1.48123 20.8708 1.48123H0.894408C0.761832 1.48349 0.631638 1.51673 0.514302 1.57829C0.396966 1.63985 0.295765 1.728 0.21884 1.83565C0.0458329 2.07187 -0.0289381 2.36558 0.0101406 2.65544C0.0101406 2.67547 0.0580642 2.88196 0.0596101 2.902C3.60595 2.57994 13.2463 5.32284 13.2463 5.32284C13.2873 5.32693 13.325 5.34708 13.3511 5.37887C13.3772 5.41066 13.3896 5.45148 13.3855 5.49235C13.3814 5.53322 13.3611 5.57079 13.3292 5.5968C13.2973 5.62281 13.2564 5.63512 13.2154 5.63103C13.2154 5.63103 5.48579 4.73728 0.46155 4.90062C0.656336 5.517 1.09229 6.84223 1.352 7.4694C5.14415 7.35845 14.2233 10.106 14.2233 10.106C14.2643 10.1101 14.302 10.1302 14.3281 10.162C14.3542 10.1938 14.3666 10.2346 14.3625 10.2755C14.3584 10.3164 14.3382 10.3539 14.3063 10.3799C14.2744 10.4059 14.2334 10.4183 14.1924 10.4142C14.1924 10.4142 7.36563 9.73615 2.41869 9.84093C3.06337 10.9335 3.76676 11.9906 4.52578 13.0076C8.15096 13.7781 11.7731 14.8814 11.7731 14.8814C11.8151 14.8855 11.8538 14.9061 11.8806 14.9386C11.9074 14.9711 11.9202 15.0129 11.9161 15.0548C11.912 15.0967 11.8913 15.1352 11.8587 15.1619C11.8261 15.1887 11.7842 15.2014 11.7421 15.1973C9.81559 14.9492 7.87646 14.8103 5.93411 14.7812C8.48488 17.3932 12.7671 20.3626 18.0603 20.3626L36.1089 20.3734C36.2414 20.3714 36.3716 20.3385 36.4889 20.2772C36.6063 20.2159 36.7075 20.128 36.7845 20.0205C36.9563 19.7872 37.0321 19.4972 36.9963 19.21ZM29.9577 11.7086C29.868 13.5328 29.1843 15.2783 28.0102 16.6805C26.8361 18.0828 25.2355 19.0654 23.4509 19.4796C22.6455 19.6723 21.3655 19.6553 20.5384 19.5967C19.7704 19.5581 19.0136 19.3968 18.2968 19.1191C17.8532 18.9451 17.4498 18.683 17.1111 18.3486C17.0149 18.2517 16.9251 18.1488 16.8421 18.0404C16.2037 17.2036 16.2346 16.1358 16.9179 15.2898C17.4087 14.6974 18.0661 14.2649 18.8055 14.0478C19.7379 13.7509 20.718 13.6312 21.6948 13.6949C22.5214 13.7386 23.3345 13.9231 24.0987 14.2404C24.4311 14.3791 24.6908 14.4808 24.8825 14.735C25.2442 15.2189 25.1283 15.8645 25.0494 16.1589C25.0386 16.1989 25.0278 16.2344 25.0201 16.2606C25.0664 16.2298 25.1329 16.1851 25.2102 16.128C25.752 15.7704 26.1915 15.2788 26.4856 14.7011C26.7298 14.2199 26.8204 13.6757 26.7453 13.1417C26.7461 13.1314 26.7461 13.1211 26.7453 13.1109C26.6909 12.7984 26.5713 12.5007 26.3944 12.2371C26.0739 11.8029 25.6952 11.4146 25.2689 11.0829C25.1144 10.9566 24.9598 10.8349 24.8052 10.7085C24.7758 10.6855 24.7516 10.6566 24.7341 10.6237C24.5268 10.2036 24.2334 9.8314 23.873 9.5312C23.0892 8.82698 22.1941 8.28148 21.2851 7.7591C19.7948 6.90387 18.2505 6.14726 16.7154 5.37678C16.3613 5.19957 16.0104 5.01927 15.658 4.83898L15.8697 4.64944C16.7822 3.92964 17.8352 3.40744 18.9616 3.11619C19.0621 3.08999 19.161 3.06226 19.2615 3.03914C20.0426 2.86426 20.8452 2.80404 21.6438 2.86039C23.3628 2.98213 25.3725 3.63857 26.7283 4.7003C28.2662 5.88578 29.3384 7.57126 29.7583 9.4634C29.932 10.1985 29.9991 10.9545 29.9577 11.7086ZM19.2569 8.28302C19.9439 8.57866 20.6148 8.91043 21.2666 9.27694C21.8772 9.61904 22.4275 9.97038 22.9207 10.3109C22.5744 10.6068 22.1075 10.9273 21.6592 10.8857C20.9311 10.821 20.3622 10.2693 20.0762 9.93493C19.6673 9.46225 19.3854 8.89388 19.2569 8.28302Z" fill="white"/>
</svg>
